<?xml version="1.0" standalone="no"?>
<!DOCTYPE svg PUBLIC "-//W3C//DTD SVG 20010904//EN"
 "http://www.w3.org/TR/2001/REC-SVG-20010904/DTD/svg10.dtd">
<svg version="1.0" xmlns="http://www.w3.org/2000/svg"
 width="1920.000000pt" height="1080.000000pt" viewBox="0 0 1920.000000 1080.000000"
 preserveAspectRatio="xMidYMid meet">

<g transform="translate(0.000000,1080.000000) scale(0.100000,-0.100000)"
fill="#000000" stroke="none">
<path d="M1744 10299 c-82 -24 -124 -118 -90 -200 5 -12 -32 -51 -149 -154
-153 -135 -157 -137 -185 -125 -38 16 -77 6 -112 -28 -63 -59 -18 -172 69
-172 l38 0 179 -327 c197 -360 482 -880 556 -1013 l48 -85 -29 -32 c-50 -57
-56 -126 -16 -187 14 -21 6 -30 -181 -203 l-196 -181 -32 15 c-40 20 -78 11
-115 -27 -38 -38 -39 -90 -3 -137 l25 -33 -99 -227 -98 -228 -55 -5 c-30 -3
-65 -13 -78 -22 -79 -56 -82 -178 -7 -234 l25 -19 -127 -327 -127 -328 -34 0
c-49 0 -101 -55 -101 -106 0 -30 7 -44 41 -76 l40 -39 -35 -320 c-20 -177 -39
-325 -42 -330 -3 -5 -13 -9 -23 -9 -23 0 -68 -48 -76 -82 -14 -57 61 -140 113
-124 14 4 25 -19 65 -143 l47 -149 -30 -30 c-42 -42 -42 -101 -1 -142 37 -38
70 -45 116 -26 l37 16 74 -52 c66 -46 73 -54 67 -77 -3 -14 -6 -28 -5 -31 0
-40 7 -56 31 -81 56 -55 144 -31 172 46 7 19 20 35 29 35 8 1 59 7 113 14 l97
12 19 -32 c25 -43 79 -59 127 -39 47 19 67 55 62 112 l-3 47 123 99 122 99 36
-17 c43 -20 83 -13 118 21 13 14 28 38 31 54 9 40 -19 96 -57 112 l-30 13 6
270 c8 321 10 343 39 355 72 27 93 117 41 171 l-29 30 38 107 c21 59 59 170
86 247 l49 140 38 6 c25 4 48 17 67 39 25 28 29 39 24 76 -3 32 -1 44 10 48 8
3 122 73 254 156 l239 150 33 -20 c64 -39 137 -12 158 60 l12 40 417 0 418 0
6 -26 c11 -41 53 -74 95 -74 33 0 76 20 91 42 3 4 84 -42 181 -103 l174 -111
-3 -38 c-5 -50 37 -100 91 -109 l37 -6 109 -239 108 -239 -23 -35 c-13 -19
-24 -50 -24 -68 0 -39 38 -89 75 -98 22 -6 25 -12 25 -54 0 -26 7 -213 15
-417 19 -476 19 -565 2 -565 -7 0 -26 -14 -42 -30 -39 -40 -41 -97 -6 -134
l24 -26 -67 -142 c-37 -79 -124 -262 -195 -408 l-127 -265 -37 3 c-59 6 -121
-30 -148 -84 -27 -56 -21 -103 19 -153 l28 -35 -155 -280 c-85 -155 -207 -376
-270 -491 -64 -116 -121 -219 -127 -229 -10 -16 -15 -17 -47 -7 -50 17 -107 0
-145 -43 -52 -59 -53 -129 -5 -186 23 -28 24 -32 10 -53 -9 -12 -143 -193
-299 -402 -224 -299 -289 -379 -304 -377 -78 14 -94 13 -133 -9 -51 -28 -86
-94 -77 -142 15 -79 81 -132 156 -125 l38 3 91 -212 91 -212 -25 -37 c-14 -20
-25 -48 -25 -61 0 -70 71 -124 136 -103 37 13 74 53 74 81 0 11 6 19 13 19 6
0 100 9 207 20 235 24 240 24 240 5 0 -24 59 -83 96 -95 124 -41 233 103 164
216 -12 19 -17 35 -11 38 6 4 45 48 87 99 43 51 80 94 83 97 3 3 31 34 61 70
30 36 65 76 77 90 11 14 92 108 179 210 86 102 169 199 184 217 l28 31 47 -15
c44 -15 50 -15 93 3 60 25 92 71 92 133 0 45 -17 83 -47 108 -12 10 33 95 279
527 281 494 294 514 318 508 71 -18 134 12 168 80 31 63 23 110 -29 160 l-38
36 180 504 c98 276 189 529 200 561 14 37 27 57 38 57 35 1 101 40 121 72 43
70 12 178 -58 207 l-30 13 -6 186 c-3 103 -9 238 -12 299 -5 113 -5 113 19
122 69 26 90 120 38 172 -16 16 -38 29 -49 29 -18 0 -20 11 -26 198 -4 108 -9
234 -13 280 -5 78 -5 82 15 82 26 0 78 43 97 81 30 58 13 124 -45 173 -18 14
-40 26 -51 26 -18 0 -19 12 -19 369 l0 369 24 6 c97 24 136 157 70 236 l-26
30 117 202 c64 112 187 326 274 475 l156 273 46 -6 c156 -20 230 176 99 264
-35 24 -44 24 -149 10 -20 -2 -52 29 -198 194 l-174 197 22 42 c64 127 -78
262 -199 189 -65 -40 -91 -125 -57 -191 15 -28 15 -31 -8 -59 -13 -15 -200
-213 -416 -438 l-392 -410 -47 20 c-61 26 -116 14 -160 -36 l-30 -34 -63 33
c-35 19 -125 67 -199 108 l-135 75 -1 39 c0 24 -9 52 -21 69 l-22 30 125 240
c69 131 184 350 256 487 l130 247 50 0 c91 0 148 55 148 142 0 59 -30 105 -85
129 -58 26 -106 17 -155 -27 -21 -19 -40 -34 -43 -34 -3 0 -105 49 -228 109
l-223 109 2 49 c7 142 -169 209 -257 97 -45 -57 -39 -136 14 -189 l34 -33 -67
-159 c-38 -87 -138 -323 -222 -525 l-155 -368 -33 0 c-41 0 -70 -15 -98 -48
l-21 -26 -254 43 c-294 49 -289 48 -289 67 0 32 -31 73 -65 85 -27 10 -36 20
-40 43 -7 48 -26 258 -23 260 39 16 77 43 92 63 42 56 26 163 -30 199 l-22 15
65 157 c36 86 88 212 115 280 40 96 54 122 69 122 43 0 90 29 105 66 20 47 10
87 -29 120 -27 23 -38 26 -82 21 l-50 -5 -97 90 c-83 76 -96 93 -88 108 37 68
-37 160 -116 146 -68 -13 -108 -107 -69 -163 14 -20 6 -33 -205 -285 -158
-188 -226 -262 -238 -259 -18 4 -84 4 -118 -1 -17 -2 -80 61 -289 287 -147
160 -283 306 -302 326 -34 36 -34 37 -19 67 41 80 -3 177 -91 201 -21 6 -40
11 -43 10 -3 0 -19 -5 -36 -10z m-34 -261 c37 -27 107 -29 146 -4 l27 18 42
-43 c24 -24 162 -174 308 -332 253 -274 286 -317 241 -317 -12 0 -729 223
-1008 313 -67 22 -68 23 -85 72 l-16 50 150 132 c83 73 154 133 158 133 4 0
21 -10 37 -22z m1638 -186 l93 -87 -15 -36 c-18 -43 -12 -75 22 -111 l25 -28
-31 -77 c-17 -43 -45 -112 -62 -153 -18 -41 -47 -111 -65 -155 -64 -155 -74
-175 -90 -175 -9 0 -17 6 -20 13 -2 6 -6 206 -8 443 l-5 430 22 11 c11 6 26
11 31 12 6 0 52 -39 103 -87z m-181 64 c1 -1 5 -201 9 -444 l7 -442 -21 0
c-11 0 -34 -11 -50 -25 l-29 -24 -124 85 c-68 47 -158 109 -200 137 l-77 52 1
55 c0 30 -2 62 -4 71 -2 11 77 115 216 282 200 242 222 265 245 260 14 -3 26
-6 27 -7z m-1252 -406 c248 -78 475 -150 505 -159 46 -14 55 -21 58 -42 3 -25
-3 -28 -170 -86 l-173 -60 -28 23 c-33 28 -91 32 -124 9 -20 -14 -31 -7 -230
153 -114 92 -246 198 -293 237 -47 38 -87 70 -89 71 -1 2 0 7 3 12 7 12 -38
25 541 -158z m-364 -26 c107 -86 239 -193 295 -237 l101 -81 -5 -48 c-4 -44
-2 -50 29 -80 19 -18 42 -37 50 -43 12 -8 29 -98 73 -390 31 -209 56 -386 56
-392 0 -7 -8 -13 -17 -13 -12 0 -32 27 -59 78 -22 42 -115 212 -206 377 -91
165 -232 422 -313 570 -81 149 -163 298 -181 332 -35 62 -41 83 -25 83 4 0 95
-70 202 -156z m3367 -168 l227 -114 0 -38 c1 -22 4 -50 8 -64 6 -24 -6 -33
-214 -164 l-220 -139 -22 21 c-12 11 -34 23 -48 27 l-26 6 -17 202 c-9 111
-19 225 -22 254 -6 51 -6 52 27 66 19 8 43 24 53 36 11 11 21 21 23 21 2 0
106 -51 231 -114z m-358 20 c0 -11 9 -118 20 -236 24 -259 24 -260 6 -260 -8
0 -26 -14 -41 -32 -22 -26 -26 -39 -23 -72 3 -23 7 -48 11 -56 4 -11 -57 -66
-222 -197 -126 -101 -234 -183 -240 -183 -12 0 -4 23 87 235 33 77 119 282
192 455 73 173 139 329 146 346 11 26 18 31 39 27 17 -4 25 -12 25 -27z
m-2033 -96 c29 -23 62 -25 108 -9 30 11 37 7 233 -127 152 -105 200 -143 195
-154 -4 -8 -7 -37 -8 -64 l0 -50 -185 -89 c-149 -71 -186 -86 -195 -75 -34 45
-89 59 -136 34 -29 -15 -33 -12 -124 73 -27 25 -103 94 -168 151 -97 86 -117
109 -111 125 4 11 8 35 9 54 l2 35 124 44 c68 24 140 50 159 57 49 19 68 18
97 -5z m2672 -194 c14 -17 21 -3 -227 -476 -297 -567 -267 -515 -301 -512 -31
4 -91 -22 -91 -38 0 -19 -28 -9 -245 88 -213 95 -219 99 -231 135 l-13 37 127
102 c316 256 346 278 356 268 5 -5 28 -10 49 -10 53 0 107 52 107 103 0 35 2
37 218 176 119 77 222 140 228 140 6 1 17 -5 23 -13z m-2918 -174 c90 -81 176
-159 191 -171 21 -19 25 -28 18 -42 -20 -36 -11 -80 23 -113 17 -18 38 -35 45
-37 10 -3 1 -102 -43 -469 -30 -255 -55 -470 -55 -477 0 -8 -12 -13 -29 -13
-32 0 -23 -16 -128 242 l-55 138 25 30 c38 44 50 91 37 138 -12 46 -64 97
-107 106 l-29 7 -59 391 c-56 377 -57 391 -40 404 11 8 24 14 30 14 7 0 86
-67 176 -148z m888 -122 c27 0 28 -2 35 -62 3 -35 8 -101 12 -148 l5 -85 -40
-33 -40 -32 -226 92 -226 93 3 33 c3 33 6 35 188 121 l185 88 38 -33 c24 -22
47 -34 66 -34z m3095 -158 c2 -4 -55 -134 -129 -287 l-133 -280 -41 -6 c-55
-7 -93 -45 -100 -99 l-6 -42 -213 -90 c-152 -64 -217 -87 -224 -80 -10 10 81
111 437 482 222 231 348 364 368 386 22 25 32 29 41 16z m271 -108 c55 -64
135 -156 177 -205 l78 -89 -20 -33 c-11 -17 -20 -43 -20 -57 l0 -25 -342 -57
-342 -57 -24 24 -24 24 135 283 134 283 41 -3 c23 -2 52 3 69 12 15 8 30 15
33 15 3 0 50 -52 105 -115z m-3621 -23 c194 -80 226 -97 226 -115 0 -11 7 -34
15 -50 8 -15 12 -33 8 -40 -6 -9 -86 -102 -234 -271 -32 -37 -172 -197 -248
-284 -99 -114 -155 -176 -160 -178 -3 -1 -14 4 -24 12 -18 13 -16 31 37 482
31 257 56 473 56 480 0 6 14 14 30 18 17 4 36 15 43 26 6 10 15 18 18 17 3 -2
108 -45 233 -97z m964 -236 c12 -3 22 -12 22 -19 0 -8 2 -21 5 -28 4 -10 -34
-44 -110 -102 l-116 -88 -25 23 c-21 20 -36 24 -84 24 l-58 0 -95 114 c-93
112 -95 115 -82 141 l14 27 253 -43 c139 -24 263 -46 276 -49z m-473 -94 c52
-62 95 -114 95 -115 0 -2 -7 -20 -16 -41 -11 -28 -13 -44 -5 -66 5 -16 7 -31
3 -33 -13 -8 -917 -398 -926 -399 -6 -1 -11 5 -13 14 -3 10 57 86 149 191 84
96 229 263 322 369 l168 194 64 0 64 -1 95 -113z m934 -48 c214 -95 217 -96
218 -127 0 -17 2 -37 4 -45 4 -12 -144 -126 -389 -298 -87 -61 -94 -64 -111
-49 -10 9 -24 16 -31 16 -11 0 -12 47 -7 260 l6 260 38 39 c21 21 42 39 47 40
5 0 106 -42 225 -96z m-385 42 c11 -8 27 -15 36 -15 14 0 15 -27 12 -242 -3
-267 -5 -288 -28 -288 -27 0 -74 -56 -74 -89 0 -20 -6 -31 -17 -35 -10 -3
-112 -30 -228 -61 -115 -31 -240 -65 -276 -75 l-67 -18 -24 37 -24 37 146 226
c136 213 147 227 175 227 17 1 41 8 54 17 27 19 54 78 47 102 -4 12 26 41 111
105 63 48 121 87 127 87 6 0 20 -7 30 -15z m2806 -87 c0 -6 11 -26 25 -43 l24
-33 -178 -308 c-320 -557 -362 -629 -369 -636 -4 -4 -25 -4 -48 -1 l-41 5 -83
396 c-82 392 -82 395 -62 411 26 21 42 53 42 85 0 20 6 26 33 31 148 27 608
103 630 104 15 1 27 -4 27 -11z m-4587 -117 l59 -6 74 -184 c41 -101 74 -188
74 -193 0 -6 -9 -21 -20 -35 -11 -14 -20 -34 -20 -44 0 -11 -6 -19 -12 -19
-23 0 -611 70 -612 72 -26 61 -25 66 18 105 22 21 110 102 195 181 115 107
157 141 170 136 9 -4 42 -10 74 -13z m2781 -140 l199 -109 1 -41 c1 -47 24
-37 -191 -90 l-121 -31 -35 35 c-19 19 -44 35 -56 35 -12 0 -21 3 -21 6 0 3
-10 62 -21 131 l-21 125 28 24 c16 13 31 23 34 23 3 1 94 -48 204 -108z m-350
84 c11 -8 29 -15 41 -15 20 0 23 -10 39 -117 10 -65 20 -125 22 -133 2 -9 -9
-22 -27 -33 -17 -9 -36 -31 -42 -47 l-11 -30 -257 0 c-225 0 -258 2 -263 16
-10 26 -8 30 47 67 28 20 135 97 237 171 102 75 187 135 190 135 3 0 14 -6 24
-14z m-1084 -20 c13 -15 9 -22 -208 -358 -29 -45 -57 -88 -61 -94 -5 -10 -14
-10 -37 -1 -45 16 -102 2 -139 -35 -18 -18 -34 -39 -37 -47 -4 -12 -36 -7
-194 28 -104 23 -213 47 -242 53 -48 10 -53 13 -50 36 3 22 41 41 408 199 223
96 434 188 470 204 77 34 74 34 90 15z m2382 -10 c16 -14 42 -25 57 -25 l27 0
83 -395 c46 -218 82 -397 80 -398 -2 -2 -17 -11 -32 -21 -77 -48 -89 -150 -27
-221 17 -19 13 -27 -140 -270 l-157 -250 -34 3 c-19 2 -36 6 -38 8 -5 4 -381
1205 -381 1216 0 4 13 14 29 22 41 22 65 63 71 124 l5 54 205 88 c113 48 209
89 214 89 4 1 21 -10 38 -24z m-710 -298 c18 -19 39 -36 46 -38 10 -3 -6 -92
-67 -379 -45 -206 -81 -377 -81 -380 0 -3 -10 -6 -22 -7 -21 -2 -34 26 -152
320 l-128 323 26 38 c14 22 26 47 26 57 0 12 10 21 28 26 15 4 86 21 157 39
72 17 131 32 132 33 0 1 16 -14 35 -32z m-3138 -89 c275 -31 289 -33 299 -55
9 -20 4 -29 -39 -76 -27 -28 -98 -106 -159 -172 -209 -227 -182 -205 -243
-197 l-54 7 -23 55 c-12 30 -57 133 -98 228 l-76 172 27 41 c22 33 30 39 52
35 14 -3 155 -20 314 -38z m3453 -578 c106 -338 193 -618 193 -622 0 -20 -42
4 -274 159 l-251 166 0 55 c0 49 -3 57 -33 81 l-32 28 80 371 c44 204 80 374
80 377 0 2 10 4 22 2 21 -2 39 -54 215 -617z m-878 577 c2 -7 19 -27 37 -44
24 -25 41 -33 67 -33 l35 0 126 -316 c69 -173 126 -322 126 -330 0 -8 -7 -14
-16 -14 -8 0 -217 160 -464 355 -445 352 -449 356 -437 382 l11 26 256 -7
c180 -5 256 -11 259 -19z m-715 -23 c5 -12 -84 -107 -327 -351 -321 -321 -335
-334 -359 -323 -23 11 -26 18 -32 102 -3 50 -6 128 -6 174 l0 82 35 12 c45 15
84 65 93 121 l7 42 285 78 c157 43 288 78 291 78 4 1 10 -6 13 -15z m-2262
-46 c8 -18 54 -124 102 -235 l88 -201 -21 -21 c-11 -11 -23 -31 -27 -45 -5
-22 -11 -24 -97 -30 -51 -4 -128 -9 -172 -12 l-80 -6 -13 36 c-7 19 -24 44
-38 55 l-25 19 102 236 102 236 31 0 c27 0 35 -6 48 -32z m2882 -333 l443
-350 -1 -50 c0 -27 3 -57 7 -66 6 -11 -11 -32 -63 -79 -65 -57 -73 -62 -96
-51 -37 17 -78 13 -107 -9 -14 -11 -28 -20 -32 -20 -4 0 -83 48 -175 107
l-168 107 -5 44 c-6 56 -40 92 -93 99 l-40 5 -81 297 c-74 268 -80 297 -65
309 9 7 20 11 25 9 4 -1 207 -160 451 -352z m-555 331 l45 -13 80 -292 c65
-240 78 -296 68 -309 -7 -10 -20 -29 -30 -45 l-17 -27 -425 2 c-399 3 -425 4
-428 21 -3 12 97 119 325 347 180 181 330 330 333 330 3 0 25 -6 49 -14z
m-1192 -48 l241 -53 5 -35 c2 -19 7 -42 11 -51 5 -12 -21 -37 -110 -105 -64
-49 -161 -124 -216 -166 -99 -77 -100 -78 -128 -63 -16 8 -42 15 -59 15 -33 0
-91 -43 -91 -67 0 -12 -8 -14 -32 -10 -18 2 -117 15 -219 28 l-185 23 -13 40
c-11 37 -11 41 17 70 15 17 51 56 79 86 260 286 295 320 313 310 30 -16 76
-12 101 10 13 10 29 20 34 20 6 1 119 -23 252 -52z m315 -198 c18 -11 41 -20
51 -20 15 0 17 -13 17 -137 0 -76 3 -155 6 -175 6 -35 5 -38 -16 -38 -13 0
-37 -15 -57 -37 l-35 -36 -209 35 c-116 20 -211 37 -213 39 -2 2 -6 18 -9 34
-6 28 -1 34 76 92 45 35 140 108 211 163 71 55 133 100 137 100 5 0 23 -9 41
-20z m-1297 -333 c17 -27 44 -48 78 -59 4 -2 14 -100 22 -218 8 -118 17 -243
20 -277 5 -60 4 -63 -16 -63 -12 0 -36 -16 -55 -35 l-32 -35 -159 30 c-87 16
-161 30 -165 30 -5 0 -8 11 -8 24 0 31 -46 86 -71 86 -27 0 -35 26 -58 195
-27 194 -28 187 14 209 32 17 75 83 75 113 0 7 47 13 128 18 70 3 132 8 137
10 6 2 24 4 40 4 23 0 35 -7 50 -32z m417 -2 c105 -14 195 -25 199 -25 4 0 10
-13 14 -30 6 -26 55 -80 73 -80 4 0 1 -72 -8 -161 l-15 -161 -31 -13 c-38 -16
-74 -60 -74 -91 0 -26 5 -24 -206 -74 l-140 -33 -29 27 c-15 14 -34 26 -41 26
-8 0 -14 8 -14 18 -1 9 -9 134 -19 277 -17 240 -18 261 -2 270 9 6 29 24 46
42 16 18 36 32 43 32 7 1 99 -10 204 -24z m850 -139 c21 -30 6 -52 -65 -95
-39 -25 -154 -96 -255 -158 l-182 -113 -30 22 c-22 16 -30 30 -29 52 0 48 26
286 30 289 2 1 21 11 43 22 21 10 42 29 46 41 l8 21 214 -35 c117 -20 216 -40
220 -46z m3086 78 l22 -6 0 -368 0 -367 -27 -6 c-16 -3 -38 -15 -50 -27 l-23
-21 -120 81 c-116 78 -119 81 -109 107 11 29 -1 75 -26 103 -12 14 -11 21 14
60 16 25 86 136 156 248 70 111 130 202 133 202 4 0 17 -3 30 -6z m-4847 -86
c3 -5 16 -82 28 -171 12 -89 25 -169 27 -178 3 -11 -4 -19 -21 -23 -36 -9 -66
-62 -63 -110 l3 -39 -123 -74 c-115 -69 -123 -73 -139 -57 -16 15 -15 21 9 88
20 55 160 415 219 564 7 18 14 22 32 16 12 -4 25 -11 28 -16z m4100 -255 c238
-159 250 -168 243 -192 -10 -34 -10 -61 -1 -88 7 -19 -6 -31 -105 -100 -131
-92 -184 -129 -301 -212 l-86 -61 -35 17 -36 18 0 372 0 371 33 20 c17 11 33
21 35 21 1 1 115 -74 253 -166z m-351 -246 c0 -278 -3 -378 -11 -375 -7 2 -60
111 -120 242 l-109 239 30 34 c31 35 39 78 20 113 -8 16 1 29 61 83 67 61 72
64 100 54 l29 -11 0 -379z m-2670 33 c0 -6 11 -21 24 -33 l25 -23 -87 -252
-87 -252 -34 2 c-32 3 -35 7 -128 186 l-95 183 16 33 c9 19 16 45 16 58 0 23
9 26 168 65 194 48 182 46 182 33z m-710 -65 c79 -14 145 -27 146 -28 1 -1 4
-19 8 -39 l7 -37 -201 -183 c-155 -141 -206 -182 -223 -179 -30 5 -129 5 -148
0 -24 -6 -232 190 -222 210 4 9 8 36 9 60 l1 45 121 73 120 74 41 -22 c35 -18
45 -19 76 -9 20 6 46 25 58 41 15 21 28 29 42 25 11 -2 85 -16 165 -31z m4068
-65 c13 0 37 7 54 16 l30 16 114 -76 114 -76 -6 -54 c-5 -39 -2 -62 11 -89 21
-45 27 -35 -136 -208 -69 -74 -172 -185 -228 -246 -90 -99 -105 -112 -122
-102 -11 6 -42 9 -68 7 l-48 -3 -152 175 c-121 140 -150 179 -145 195 4 11 8
42 9 69 2 41 7 53 30 70 16 12 127 91 248 177 212 150 222 155 246 143 14 -8
36 -14 49 -14z m-3858 -65 c15 -8 45 -14 66 -12 l38 2 94 -183 94 -184 -20
-21 c-29 -31 -37 -71 -20 -105 l15 -29 -130 -139 c-71 -76 -134 -137 -140
-135 -34 12 -71 12 -97 1 -30 -12 -32 -11 -137 86 -58 55 -124 115 -145 134
l-40 35 12 46 c11 42 9 52 -9 95 -21 46 -21 49 -4 66 30 29 388 357 391 357 2
1 16 -6 32 -14z m-757 -256 l107 -101 -20 -33 c-22 -36 -26 -100 -9 -139 11
-24 5 -32 -103 -143 -63 -65 -129 -133 -145 -152 -25 -29 -34 -33 -57 -27 -26
6 -28 10 -23 44 3 20 20 170 38 333 l32 296 31 10 c17 6 33 11 36 12 3 0 54
-44 113 -100z m5012 -13 l40 -14 6 -84 c4 -45 10 -168 14 -273 l7 -190 -35
-18 c-19 -11 -40 -30 -46 -44 -7 -16 -17 -23 -29 -19 -9 3 -116 17 -238 32
l-220 27 -13 40 c-11 38 -11 41 17 71 112 121 428 463 437 473 13 15 12 15 60
-1z m-851 -317 c86 -100 156 -187 156 -195 0 -7 -4 -16 -10 -19 -18 -11 -11
-81 11 -109 l20 -26 -139 -237 c-77 -131 -145 -248 -151 -260 -6 -13 -20 -23
-31 -23 -24 0 -26 28 -40 460 -5 184 -13 388 -16 452 -7 127 -10 118 43 137 1
1 72 -81 157 -180z m-3095 24 l24 -6 -7 -271 c-9 -340 -10 -352 -44 -361 -23
-6 -38 6 -139 112 -75 79 -110 123 -106 133 15 36 14 81 -1 104 -15 24 -14 26
78 123 51 54 107 115 125 136 36 40 35 40 70 30z m-596 -139 c126 -116 146
-138 137 -154 -16 -30 -12 -75 10 -103 l20 -25 -144 -229 c-80 -125 -166 -262
-192 -305 -45 -73 -48 -76 -79 -71 -19 3 -44 -1 -62 -11 -31 -15 -31 -15 -106
40 -72 53 -75 56 -64 83 13 37 2 77 -30 107 l-27 25 66 207 c37 114 89 279
117 367 l51 160 45 1 c30 1 55 8 73 22 15 11 30 21 33 21 3 1 72 -60 152 -135z
m-339 113 c16 -12 12 -27 -53 -232 -38 -121 -91 -289 -118 -372 -42 -134 -51
-153 -69 -153 -19 0 -27 18 -68 144 -25 79 -46 148 -46 154 0 5 7 16 17 23 9
8 22 29 30 47 11 27 11 37 -2 68 l-15 36 143 148 c78 81 147 148 153 149 5 0
18 -5 28 -12z m4629 -316 c120 -16 219 -31 221 -33 1 -1 9 -20 18 -40 l17 -37
-112 -128 c-62 -71 -143 -166 -182 -212 -57 -68 -73 -81 -90 -75 -11 3 -39 9
-62 11 -37 4 -46 1 -73 -25 -16 -17 -30 -39 -30 -50 0 -21 -2 -21 -282 -37
l-93 -6 -21 34 -21 35 151 258 152 258 46 1 c48 1 98 32 98 62 0 18 11 17 263
-16z m-3913 -158 c161 -167 153 -154 135 -196 -11 -27 -12 -43 -5 -62 6 -15
10 -28 10 -30 0 -2 -56 -50 -125 -105 -125 -101 -125 -101 -159 -89 -30 11
-34 16 -30 43 2 17 8 110 14 206 17 281 17 285 48 297 15 6 29 11 32 12 3 1
39 -34 80 -76z m-174 59 c8 -5 6 -78 -7 -262 -10 -140 -18 -256 -18 -257 -1
-2 -17 -9 -36 -17 -24 -10 -40 -27 -52 -53 -10 -21 -19 -40 -20 -42 -3 -4
-182 -30 -213 -31 -9 0 -24 15 -34 34 l-18 34 144 229 c79 125 164 261 189
300 46 76 47 77 65 65z m4387 -31 c25 -10 25 -11 31 -178 3 -92 9 -228 12
-300 l6 -133 -29 0 c-25 0 -52 -13 -103 -51 -12 -8 -47 6 -160 65 -130 67
-145 77 -142 98 2 14 -1 36 -7 50 -9 23 1 36 107 160 64 74 148 171 187 216
38 45 71 82 72 82 1 0 13 -4 26 -9z m-588 -521 c3 -11 13 -26 21 -34 14 -15
-16 -52 -307 -386 -26 -30 -58 -67 -71 -82 l-23 -28 -37 18 c-20 9 -39 26 -42
37 -2 11 -6 98 -7 194 -2 164 -1 175 17 182 26 9 61 49 66 74 3 18 16 21 153
31 229 17 223 17 230 -6z m481 -223 c-1 -42 4 -63 21 -85 l21 -29 -221 -221
c-192 -191 -224 -220 -240 -211 -28 16 -82 13 -115 -7 l-30 -17 -138 84 c-132
80 -139 87 -145 122 -5 35 -2 41 80 135 47 54 142 164 211 245 123 145 125
146 160 141 27 -4 43 0 70 19 l35 24 146 -73 145 -72 0 -55z m-973 41 c4 -46
7 -136 7 -200 0 -105 -2 -117 -18 -122 -36 -12 -66 -55 -65 -94 0 -20 2 -44 4
-53 3 -11 -37 -51 -117 -120 -226 -194 -204 -179 -222 -156 -7 8 4 40 36 107
25 52 88 183 139 290 52 107 119 248 150 313 31 64 62 117 68 117 8 0 14 -29
18 -82z m1075 -193 c2 -2 -245 -700 -365 -1028 -35 -95 -37 -98 -62 -92 -14 4
-26 7 -27 8 -1 1 -21 119 -46 262 l-44 260 30 20 c38 26 54 75 38 119 l-12 31
222 222 c199 200 224 221 242 211 12 -6 22 -12 24 -13z m-803 -358 l130 -79 0
-46 c0 -26 3 -52 5 -57 3 -6 -51 -60 -120 -120 -762 -673 -716 -635 -750 -622
l-30 11 0 191 c0 240 4 262 41 270 15 4 44 24 64 47 34 37 36 43 32 91 -2 29
-7 61 -11 72 -6 17 12 36 101 110 59 50 131 111 161 137 53 46 55 47 83 33 15
-8 37 -15 49 -15 29 0 76 26 84 45 3 9 12 15 18 13 7 -2 72 -38 143 -81z m215
-236 c24 -8 27 -18 69 -266 43 -250 44 -258 25 -268 -63 -35 -100 -110 -83
-169 5 -17 8 -33 6 -34 -1 -1 -49 -28 -107 -61 -58 -33 -145 -83 -194 -112
l-88 -51 -33 20 c-39 24 -66 25 -105 5 -27 -14 -36 -12 -202 54 l-173 69 -6
38 c-3 22 -8 44 -10 50 -2 7 57 65 131 130 75 66 225 198 334 294 362 319 376
330 394 320 10 -6 28 -14 42 -19z m-1009 -221 c5 0 9 -94 9 -223 l0 -223 -35
-17 c-49 -23 -67 -56 -63 -114 l3 -49 -243 -203 c-268 -224 -302 -242 -236
-123 41 73 52 94 106 192 20 36 109 198 198 360 90 162 177 321 194 352 19 37
36 56 44 53 8 -3 18 -5 23 -5z m1054 -614 c-13 -22 -143 -250 -290 -506 -146
-256 -269 -468 -273 -472 -4 -4 -12 -4 -18 0 -8 5 -6 37 6 117 10 61 35 211
55 335 20 124 41 227 46 229 6 2 22 13 37 26 20 17 27 35 32 76 l5 54 110 64
c61 35 146 85 190 111 l80 47 22 -20 22 -20 -24 -41z m-775 -62 c91 -36 168
-69 171 -72 4 -4 1 -21 -6 -37 -13 -30 -20 -33 -237 -92 -122 -34 -340 -94
-483 -133 -143 -40 -264 -73 -269 -73 -6 -1 -11 6 -13 15 -6 23 484 432 506
422 63 -25 122 -19 144 16 6 11 14 20 17 20 3 0 80 -30 170 -66z m188 -195
l24 -29 -113 -173 c-99 -151 -394 -596 -512 -775 -30 -44 -46 -60 -57 -56 -8
3 -33 8 -56 11 l-40 5 -159 317 -158 318 23 31 c13 18 26 51 29 74 l6 41 175
48 c96 27 310 86 475 133 165 46 309 84 320 84 11 1 31 -12 43 -29z m78 -66
c-3 -16 -26 -156 -51 -313 -59 -371 -51 -340 -83 -340 -35 0 -86 -31 -109 -67
-11 -16 -18 -47 -19 -76 l0 -49 -215 -93 c-194 -84 -215 -91 -223 -75 -9 19
25 73 478 758 143 216 192 282 207 282 17 0 20 -5 15 -27z m-1257 -339 c2 -2
-11 -121 -29 -264 -26 -196 -37 -260 -47 -260 -52 0 -107 -66 -101 -122 l3
-31 -219 -84 c-208 -80 -219 -83 -237 -67 -10 9 -19 21 -19 26 0 5 39 62 87
126 513 691 514 693 537 686 11 -4 23 -8 25 -10z m247 -300 c130 -263 155
-320 145 -333 -6 -9 -17 -28 -24 -43 -6 -16 -18 -28 -27 -28 -8 0 -80 11 -160
25 -80 14 -146 25 -147 25 -2 0 -3 11 -3 25 0 36 -26 82 -50 90 -11 3 -20 13
-20 21 0 20 59 473 65 501 3 12 15 23 28 26 12 2 25 5 29 6 3 0 77 -141 164
-315z m777 -246 c10 -14 -96 -143 -479 -588 -12 -14 -65 -76 -118 -137 -53
-62 -100 -113 -104 -113 -33 1 -29 24 53 283 47 146 85 268 85 271 0 2 13 7
29 11 34 7 65 39 78 80 9 27 28 38 219 121 115 51 213 91 218 90 5 -1 14 -9
19 -18z m-816 -159 l144 -23 14 -32 c7 -18 28 -40 45 -49 17 -9 30 -22 27 -28
-2 -7 -40 -125 -82 -262 -43 -138 -81 -253 -84 -256 -3 -4 -27 -9 -53 -11 -44
-5 -47 -4 -53 21 -3 14 -49 158 -101 319 l-95 293 28 29 c16 16 36 27 47 25
10 -2 84 -14 163 -26z m-340 -9 c14 -11 38 -20 52 -20 27 0 29 -6 133 -322
l105 -323 -22 -24 -23 -24 -364 223 -364 223 4 56 c2 31 5 57 7 58 1 3 435
170 443 172 2 1 15 -8 29 -19z m-310 -396 c103 -64 249 -153 323 -198 243
-148 227 -135 214 -182 -5 -19 -19 -22 -197 -38 -106 -9 -206 -19 -223 -22
-25 -5 -32 -1 -42 20 -16 35 -70 68 -103 62 -25 -5 -29 2 -119 210 l-93 215
24 24 c13 13 25 24 26 24 0 1 86 -51 190 -115z"/>
<path d="M3590 6349 c-400 -27 -694 -213 -846 -532 -84 -179 -96 -303 -92
-982 l3 -520 23 -33 c32 -45 71 -62 139 -62 65 0 110 22 140 67 17 25 18 72
24 638 5 543 7 617 23 670 51 173 168 312 327 388 126 61 199 78 354 84 107 4
148 1 230 -16 254 -52 438 -205 513 -426 l27 -80 5 -615 5 -615 23 -33 c33
-45 71 -62 140 -62 70 0 117 26 145 80 17 33 17 74 14 640 -4 571 -5 610 -25
691 -69 288 -238 494 -506 620 -177 83 -405 117 -666 98z"/>
<path d="M6593 6289 c-30 -15 -48 -33 -62 -63 -20 -41 -21 -58 -20 -467 0
-233 4 -548 9 -699 7 -263 9 -278 35 -353 59 -168 181 -305 340 -382 145 -71
184 -75 649 -75 428 0 489 5 607 49 162 61 306 208 368 376 49 131 51 162 51
869 l0 663 -23 34 c-63 95 -203 86 -251 -15 -14 -29 -16 -82 -17 -373 -1 -186
-4 -493 -8 -683 -7 -324 -9 -348 -30 -402 -31 -79 -96 -148 -169 -181 -94 -43
-183 -49 -584 -44 -383 4 -398 6 -495 55 -50 26 -119 95 -145 145 -48 95 -50
137 -47 822 l4 640 -23 36 c-23 38 -80 69 -125 69 -12 0 -41 -9 -64 -21z"/>
<path d="M10301 6264 c-149 -40 -263 -150 -305 -295 -15 -49 -16 -143 -14
-851 l3 -796 25 -27 c39 -42 78 -58 128 -52 53 6 91 31 114 78 17 31 18 90 18
794 0 723 1 762 19 795 10 19 34 44 52 55 33 19 57 20 581 25 l547 5 30 29
c79 76 58 201 -39 240 -35 14 -105 16 -573 15 -432 0 -542 -3 -586 -15z"/>
<path d="M13160 6269 c-123 -24 -235 -115 -293 -237 l-32 -67 -3 -630 c-3
-674 1 -762 42 -851 35 -76 116 -158 195 -197 l66 -32 832 -3 c741 -2 836 -1
864 13 71 37 94 154 42 216 -52 61 -19 59 -874 59 -705 0 -784 2 -809 16 -59
36 -57 12 -64 699 -7 620 -7 630 13 662 44 69 1 65 725 67 646 1 655 1 682
-20 61 -45 62 -48 69 -311 l6 -243 -478 0 c-533 0 -523 1 -570 -69 -29 -43
-31 -113 -3 -158 39 -65 14 -63 710 -63 l630 0 0 368 c0 206 -5 395 -11 431
-28 175 -167 319 -338 351 -67 12 -1336 12 -1401 -1z"/>
<path d="M16415 6265 c-22 -8 -41 -15 -42 -15 -1 0 -14 -17 -28 -37 -46 -69
-25 -159 47 -203 32 -19 52 -20 816 -20 868 0 834 2 870 -64 15 -28 17 -90 20
-663 3 -561 2 -635 -13 -662 -32 -63 -8 -61 -730 -61 -737 0 -701 -4 -736 73
-16 37 -19 68 -19 275 l0 232 484 0 483 0 34 23 c40 26 69 79 69 123 0 36 -32
88 -73 118 -28 21 -35 21 -655 21 l-627 0 -3 -190 c-1 -104 1 -293 6 -420 8
-230 8 -230 39 -297 44 -93 109 -160 202 -206 l75 -37 871 -3 872 -3 7 291
c11 457 -2 1372 -21 1440 -40 148 -173 263 -334 289 -40 7 -342 11 -819 10
-632 0 -762 -2 -795 -14z"/>
</g>
</svg>
